# xmcd
#
# Track frame offsets: 
#        150
#        19346
#        38649
#        57085
#        74131
#        95562
#        112087
#        129192
#        141835
#        159836
#        178660
#        196531
#        209718
#        228186
#        245777
#        269161
#        282248
#        301588
#
# Disc length: 4286 seconds
#
# Revision: 0
# Processed by: cddbd v1.5.1PL0 Copyright (c) Steve Scherf et al.
# Submitted via: ExactAudioCopy v0.95a3
#
DISCID=0810bc12
DTITLE=Spice Girls - The Best 2001
DYEAR=2001
DGENRE=Pop
TTITLE0=Tell Me Why
TTITLE1=Walk Of Life
TTITLE2=Become I (Single Version)
TTITLE3=Get Down With Me
TTITLE4=Goodbye
TTITLE5=Love Thing
TTITLE6=Move Over
TTITLE7=Denying
TTITLE8=Outer Spice Girls
TTITLE9=Right Back Of Ya
TTITLE10=Say You'll Be There (Single Mix)
TTITLE11=Spice Up Your Life
TTITLE12=Step To Me (7" Mix)
TTITLE13=Too Much
TTITLE14=Viva Forever
TTITLE15=Wannabe
TTITLE16=Holler
TTITLE17=Saterday Night Divas
EXTD=
EXTT0=
EXTT1=
EXTT2=
EXTT3=
EXTT4=
EXTT5=
EXTT6=
EXTT7=
EXTT8=
EXTT9=
EXTT10=
EXTT11=
EXTT12=
EXTT13=
EXTT14=
EXTT15=
EXTT16=
EXTT17=
PLAYORDER=
